<mxfile host="app.diagrams.net" modified="2021-01-12T11:17:29.601Z" agent="5.0 (Windows NT 10.0; Win64; x64) AppleWebKit/537.36 (KHTML, like Gecko) Chrome/86.0.4240.198 Safari/537.36 OPR/72.0.3815.459" etag="xZpXfKqdwO_kIbU6ricv" version="14.1.9" type="github">
  <diagram name="Page-1" id="03018318-947c-dd8e-b7a3-06fadd420f32">
    <mxGraphModel dx="1424" dy="886" grid="1" gridSize="10" guides="1" tooltips="1" connect="1" arrows="1" fold="1" page="1" pageScale="1" pageWidth="1100" pageHeight="850" math="0" shadow="0">
      <root>
        <mxCell id="0" />
        <mxCell id="1" parent="0" />
        <mxCell id="677b7b8949515195-1" value="" style="whiteSpace=wrap;html=1;shadow=1;labelBackgroundColor=none;strokeWidth=1;fontFamily=Comic Sans MS;fontSize=12;align=center;comic=0;gradientDirection=north;sketch=0;rounded=0;dashed=1;" parent="1" vertex="1">
          <mxGeometry x="20" y="20" width="1060" height="810" as="geometry" />
        </mxCell>
        <mxCell id="SLFzzPu9vYV9y0OqvAWU-2" value="" style="rounded=0;whiteSpace=wrap;html=1;dashed=1;" vertex="1" parent="1">
          <mxGeometry x="235" y="280" width="600" height="260" as="geometry" />
        </mxCell>
        <mxCell id="677b7b8949515195-2" value="&lt;p style=&quot;font-size: 47px;&quot;&gt;&lt;font face=&quot;Comic Sans MS&quot; style=&quot;font-size: 47px;&quot;&gt;Sports&lt;/font&gt;&lt;/p&gt;" style="whiteSpace=wrap;html=1;shadow=0;labelBackgroundColor=none;strokeWidth=1;fontFamily=Verdana;fontSize=47;align=center;comic=1;fillColor=none;rounded=1;strokeColor=none;verticalAlign=middle;" parent="1" vertex="1">
          <mxGeometry x="60" y="40" width="760" height="90" as="geometry" />
        </mxCell>
        <mxCell id="677b7b8949515195-3" value="Search" style="strokeWidth=1;shadow=1;dashed=1;align=center;html=1;shape=mxgraph.mockup.forms.searchBox;mainText=;strokeColor2=#008cff;fontSize=17;align=left;spacingLeft=3;labelBackgroundColor=none;comic=1;fillColor=none;labelBorderColor=none;sketch=0;" parent="1" vertex="1">
          <mxGeometry x="840" y="95" width="220" height="30" as="geometry" />
        </mxCell>
        <mxCell id="677b7b8949515195-9" value="" style="line;strokeWidth=1;html=1;shadow=0;labelBackgroundColor=none;fillColor=none;fontFamily=Verdana;fontSize=14;align=center;comic=1;sketch=1;dashed=1;" parent="1" vertex="1">
          <mxGeometry x="20" y="140" width="1060" height="10" as="geometry" />
        </mxCell>
        <mxCell id="677b7b8949515195-10" value="" style="whiteSpace=wrap;html=1;shadow=1;labelBackgroundColor=none;strokeWidth=1;fillColor=none;fontFamily=Verdana;fontSize=12;align=center;comic=0;sketch=0;rounded=0;dashed=1;" parent="1" vertex="1">
          <mxGeometry x="30" y="160" width="1040" height="50" as="geometry" />
        </mxCell>
        <mxCell id="677b7b8949515195-11" value="How to eat on the right way" style="text;html=1;points=[];align=left;verticalAlign=top;spacingTop=-4;fontSize=14;fontFamily=Verdana;" parent="1" vertex="1">
          <mxGeometry x="50" y="175" width="200" height="20" as="geometry" />
        </mxCell>
        <mxCell id="677b7b8949515195-12" value="Latest Sports News" style="text;html=1;points=[];align=left;verticalAlign=top;spacingTop=-4;fontSize=14;fontFamily=Verdana;" parent="1" vertex="1">
          <mxGeometry x="280" y="175" width="150" height="20" as="geometry" />
        </mxCell>
        <mxCell id="677b7b8949515195-13" value="Excercises for Quarantine" style="text;html=1;points=[];align=left;verticalAlign=top;spacingTop=-4;fontSize=14;fontFamily=Verdana;" parent="1" vertex="1">
          <mxGeometry x="620" y="175" width="190" height="20" as="geometry" />
        </mxCell>
        <mxCell id="677b7b8949515195-15" value="&lt;div style=&quot;text-align: justify ; font-size: 14px&quot;&gt;&lt;br&gt;&lt;/div&gt;&lt;div style=&quot;text-align: justify ; font-size: 14px&quot;&gt;&lt;font style=&quot;font-size: 14px&quot;&gt;&lt;br&gt;&lt;/font&gt;&lt;/div&gt;&lt;div style=&quot;text-align: justify ; font-size: 14px&quot;&gt;&lt;font style=&quot;font-size: 14px&quot;&gt;Visiter Count&lt;/font&gt;&lt;/div&gt;&lt;div style=&quot;text-align: justify ; font-size: 14px&quot;&gt;&lt;font style=&quot;font-size: 14px&quot;&gt;Email of Maker&lt;/font&gt;&lt;/div&gt;&lt;div style=&quot;text-align: justify ; font-size: 14px&quot;&gt;&lt;font style=&quot;font-size: 14px&quot;&gt;Phone Numbers&lt;/font&gt;&lt;/div&gt;&lt;div style=&quot;text-align: justify ; font-size: 14px&quot;&gt;&lt;font style=&quot;font-size: 14px&quot;&gt;Other Social Accounts&lt;/font&gt;&lt;/div&gt;" style="whiteSpace=wrap;html=1;shadow=1;labelBackgroundColor=none;strokeWidth=1;fontFamily=Verdana;fontSize=12;align=center;verticalAlign=top;spacing=10;comic=0;sketch=0;rounded=0;dashed=1;" parent="1" vertex="1">
          <mxGeometry x="80" y="630" width="940" height="160" as="geometry" />
        </mxCell>
        <mxCell id="FqH0IEODXZGcoSVXCvni-1" value="&lt;span style=&quot;font-size: 20px&quot;&gt;Changing Background picture&lt;br&gt;from different Sports&lt;br&gt;&lt;/span&gt;" style="text;html=1;strokeColor=none;fillColor=none;align=center;verticalAlign=middle;whiteSpace=wrap;rounded=0;" parent="1" vertex="1">
          <mxGeometry x="390" y="340" width="290" height="140" as="geometry" />
        </mxCell>
        <mxCell id="nDGetDEKoiDjGCJt77-l-8" value="" style="rounded=0;whiteSpace=wrap;html=1;shadow=1;sketch=0;dashed=1;" parent="1" vertex="1">
          <mxGeometry x="20" y="870" width="1060" height="810" as="geometry" />
        </mxCell>
        <mxCell id="nDGetDEKoiDjGCJt77-l-10" value="&lt;h1&gt;How to eat in the right way&lt;/h1&gt;" style="rounded=0;whiteSpace=wrap;html=1;shadow=1;dashed=1;" parent="1" vertex="1">
          <mxGeometry x="230" y="920" width="640" height="60" as="geometry" />
        </mxCell>
        <mxCell id="nDGetDEKoiDjGCJt77-l-11" value="" style="rounded=0;whiteSpace=wrap;html=1;sketch=0;strokeColor=#000000;fillColor=#ffffff;gradientColor=none;shadow=1;dashed=1;" parent="1" vertex="1">
          <mxGeometry x="20" y="1720" width="1060" height="810" as="geometry" />
        </mxCell>
        <mxCell id="nDGetDEKoiDjGCJt77-l-13" value="&lt;h1&gt;Latest Sports News&lt;/h1&gt;" style="rounded=0;whiteSpace=wrap;html=1;sketch=0;strokeColor=#000000;fillColor=#ffffff;gradientColor=none;shadow=1;dashed=1;" parent="1" vertex="1">
          <mxGeometry x="190" y="1780" width="700" height="70" as="geometry" />
        </mxCell>
        <mxCell id="nDGetDEKoiDjGCJt77-l-14" value="" style="rounded=0;whiteSpace=wrap;html=1;sketch=0;strokeColor=#000000;fillColor=#ffffff;gradientColor=none;shadow=1;dashed=1;" parent="1" vertex="1">
          <mxGeometry x="20" y="2570" width="1060" height="810" as="geometry" />
        </mxCell>
        <mxCell id="nDGetDEKoiDjGCJt77-l-15" value="&lt;h1&gt;Exercises for Quarantine&lt;/h1&gt;" style="rounded=0;whiteSpace=wrap;html=1;sketch=0;strokeColor=#000000;fillColor=#ffffff;gradientColor=none;shadow=1;dashed=1;" parent="1" vertex="1">
          <mxGeometry x="185" y="2630" width="700" height="70" as="geometry" />
        </mxCell>
        <mxCell id="nDGetDEKoiDjGCJt77-l-16" value="Picture about Exercise" style="whiteSpace=wrap;html=1;aspect=fixed;sketch=0;strokeColor=#000000;fillColor=#ffffff;gradientColor=none;shadow=1;rounded=1;dashed=1;" parent="1" vertex="1">
          <mxGeometry x="140" y="2790" width="130" height="130" as="geometry" />
        </mxCell>
        <mxCell id="nDGetDEKoiDjGCJt77-l-18" value="Picture about Exercise" style="whiteSpace=wrap;html=1;aspect=fixed;sketch=0;strokeColor=#000000;fillColor=#ffffff;gradientColor=none;shadow=1;rounded=1;dashed=1;" parent="1" vertex="1">
          <mxGeometry x="310" y="2790" width="130" height="130" as="geometry" />
        </mxCell>
        <mxCell id="nDGetDEKoiDjGCJt77-l-19" value="Picture about Exercise" style="whiteSpace=wrap;html=1;aspect=fixed;sketch=0;strokeColor=#000000;fillColor=#ffffff;gradientColor=none;shadow=1;rounded=0;dashed=1;" parent="1" vertex="1">
          <mxGeometry x="480" y="2790" width="130" height="130" as="geometry" />
        </mxCell>
        <mxCell id="nDGetDEKoiDjGCJt77-l-20" value="Picture about Exercise" style="whiteSpace=wrap;html=1;aspect=fixed;sketch=0;strokeColor=#000000;fillColor=#ffffff;gradientColor=none;shadow=1;rounded=0;dashed=1;" parent="1" vertex="1">
          <mxGeometry x="310" y="2950" width="130" height="130" as="geometry" />
        </mxCell>
        <mxCell id="nDGetDEKoiDjGCJt77-l-21" value="Picture about Exercise" style="whiteSpace=wrap;html=1;aspect=fixed;sketch=0;strokeColor=#000000;fillColor=#ffffff;gradientColor=none;shadow=1;rounded=0;dashed=1;" parent="1" vertex="1">
          <mxGeometry x="140" y="2950" width="130" height="130" as="geometry" />
        </mxCell>
        <mxCell id="nDGetDEKoiDjGCJt77-l-22" value="Picture about Exercise" style="whiteSpace=wrap;html=1;aspect=fixed;sketch=0;strokeColor=#000000;fillColor=#ffffff;gradientColor=none;shadow=1;rounded=0;dashed=1;glass=0;" parent="1" vertex="1">
          <mxGeometry x="485" y="2950" width="130" height="130" as="geometry" />
        </mxCell>
        <mxCell id="nDGetDEKoiDjGCJt77-l-23" value="Picture about Exercise" style="whiteSpace=wrap;html=1;aspect=fixed;sketch=0;strokeColor=#000000;fillColor=#ffffff;gradientColor=none;shadow=1;rounded=0;dashed=1;" parent="1" vertex="1">
          <mxGeometry x="650" y="2790" width="130" height="130" as="geometry" />
        </mxCell>
        <mxCell id="nDGetDEKoiDjGCJt77-l-24" value="Picture about Exercise" style="whiteSpace=wrap;html=1;aspect=fixed;sketch=0;strokeColor=#000000;fillColor=#ffffff;gradientColor=none;shadow=1;rounded=0;dashed=1;" parent="1" vertex="1">
          <mxGeometry x="650" y="2950" width="130" height="130" as="geometry" />
        </mxCell>
        <mxCell id="nDGetDEKoiDjGCJt77-l-25" value="Picture about Exercise" style="whiteSpace=wrap;html=1;aspect=fixed;sketch=0;strokeColor=#000000;fillColor=#ffffff;gradientColor=none;shadow=1;rounded=0;dashed=1;" parent="1" vertex="1">
          <mxGeometry x="820" y="2790" width="130" height="130" as="geometry" />
        </mxCell>
        <mxCell id="nDGetDEKoiDjGCJt77-l-26" value="Picture about Exercise" style="whiteSpace=wrap;html=1;aspect=fixed;sketch=0;strokeColor=#000000;fillColor=#ffffff;gradientColor=none;shadow=1;rounded=0;dashed=1;" parent="1" vertex="1">
          <mxGeometry x="820" y="2950" width="130" height="130" as="geometry" />
        </mxCell>
        <mxCell id="nDGetDEKoiDjGCJt77-l-27" value="Picture about Exercise" style="whiteSpace=wrap;html=1;aspect=fixed;sketch=0;strokeColor=#000000;fillColor=#ffffff;gradientColor=none;rounded=0;shadow=1;dashed=1;" parent="1" vertex="1">
          <mxGeometry x="820" y="3110" width="130" height="130" as="geometry" />
        </mxCell>
        <mxCell id="nDGetDEKoiDjGCJt77-l-28" value="Picture about Exercise" style="whiteSpace=wrap;html=1;aspect=fixed;sketch=0;strokeColor=#000000;fillColor=#ffffff;gradientColor=none;rounded=0;shadow=1;glass=0;dashed=1;" parent="1" vertex="1">
          <mxGeometry x="650" y="3110" width="130" height="130" as="geometry" />
        </mxCell>
        <mxCell id="nDGetDEKoiDjGCJt77-l-29" value="Picture about Exercise" style="whiteSpace=wrap;html=1;aspect=fixed;sketch=0;strokeColor=#000000;fillColor=#ffffff;gradientColor=none;shadow=1;rounded=0;dashed=1;" parent="1" vertex="1">
          <mxGeometry x="485" y="3110" width="130" height="130" as="geometry" />
        </mxCell>
        <mxCell id="nDGetDEKoiDjGCJt77-l-30" value="Picture about Exercise" style="whiteSpace=wrap;html=1;aspect=fixed;sketch=0;strokeColor=#000000;fillColor=#ffffff;gradientColor=none;shadow=1;rounded=0;dashed=1;" parent="1" vertex="1">
          <mxGeometry x="310" y="3110" width="130" height="130" as="geometry" />
        </mxCell>
        <mxCell id="nDGetDEKoiDjGCJt77-l-31" value="Picture about Exercise" style="whiteSpace=wrap;html=1;aspect=fixed;sketch=0;strokeColor=#000000;fillColor=#ffffff;gradientColor=none;shadow=1;rounded=0;dashed=1;" parent="1" vertex="1">
          <mxGeometry x="140" y="3110" width="130" height="130" as="geometry" />
        </mxCell>
        <mxCell id="nDGetDEKoiDjGCJt77-l-32" value="&lt;h2&gt;Pick one of the Picture to get the Info about that exercise&lt;/h2&gt;" style="rounded=0;whiteSpace=wrap;html=1;sketch=0;strokeColor=#000000;fillColor=#ffffff;gradientColor=none;glass=0;shadow=1;dashed=1;" parent="1" vertex="1">
          <mxGeometry x="180" y="2700" width="710" height="60" as="geometry" />
        </mxCell>
        <mxCell id="rip5tS6j1wsVapRwsfgn-2" value="Tabletennis The Game" style="text;html=1;strokeColor=none;fillColor=none;align=center;verticalAlign=middle;whiteSpace=wrap;rounded=0;shadow=1;comic=1;sketch=0;fontFamily=Verdana;fontSize=13;" parent="1" vertex="1">
          <mxGeometry x="820" y="170" width="240" height="30" as="geometry" />
        </mxCell>
        <mxCell id="SLFzzPu9vYV9y0OqvAWU-1" value="&lt;font style=&quot;font-size: 15px&quot;&gt;Sport facts&amp;nbsp;&lt;/font&gt;" style="text;html=1;strokeColor=none;fillColor=none;align=center;verticalAlign=middle;whiteSpace=wrap;rounded=0;" vertex="1" parent="1">
          <mxGeometry x="400" y="170" width="230" height="30" as="geometry" />
        </mxCell>
      </root>
    </mxGraphModel>
  </diagram>
</mxfile>
